<svg width="18" height="18" viewBox="0 0 18 18" fill="none" xmlns="http://www.w3.org/2000/svg">
<path d="M6.5025 10.5H3C2.175 10.5 1.5 11.175 1.5 12V16.5H6.5025V10.5Z" stroke="#023047" strokeWidth="1.125" strokeMiterlimit="10" strokeLinecap="round" strokeLinejoin="round"/>
<path d="M9.9975 7.5H7.995C7.17 7.5 6.495 8.175 6.495 9V16.5H11.4975V9C11.4975 8.175 10.83 7.5 9.9975 7.5Z" stroke="#023047" strokeWidth="1.125" strokeMiterlimit="10" strokeLinecap="round" strokeLinejoin="round"/>
<path d="M14.9999 12.75H11.4974V16.5H16.4999V14.25C16.4999 13.425 15.8249 12.75 14.9999 12.75Z" stroke="#023047" strokeWidth="1.125" strokeMiterlimit="10" strokeLinecap="round" strokeLinejoin="round"/>
<path d="M9.38993 1.55261L9.78743 2.34761C9.83993 2.46011 9.98243 2.56511 10.1024 2.58011L10.8224 2.70011C11.2799 2.77511 11.3924 3.1126 11.0624 3.4351L10.4999 3.9976C10.4024 4.0951 10.3499 4.2751 10.3799 4.4026L10.5374 5.09261C10.6649 5.64011 10.3724 5.85012 9.89243 5.56512L9.21743 5.16762C9.09743 5.09262 8.89493 5.09262 8.77493 5.16762L8.09993 5.56512C7.61993 5.85012 7.32743 5.64011 7.45493 5.09261L7.61243 4.4026C7.64243 4.2751 7.58993 4.0876 7.49243 3.9976L6.93743 3.4426C6.60743 3.1126 6.71243 2.78259 7.17743 2.70759L7.89743 2.58762C8.01743 2.56512 8.15993 2.46012 8.21243 2.35512L8.60993 1.5601C8.82743 1.1251 9.17243 1.12511 9.38993 1.55261Z" stroke="#023047" strokeWidth="1.125" strokeLinecap="round" strokeLinejoin="round"/>
</svg>
