<svg xmlns="http://www.w3.org/2000/svg" width="38" height="38" viewBox="0 0 38 38" fill="none">
  <path d="M31.0875 23.484C32.4251 23.3211 35.375 22.9705 35.9001 23.6469C36.425 24.3108 35.3126 27.1046 34.8126 28.3447C34.6626 28.7206 34.9876 28.8708 35.325 28.5828C37.525 26.7287 38.1001 22.8575 37.6501 22.2938C37.2 21.7428 33.3377 21.2665 30.9875 22.9203C30.625 23.1833 30.6875 23.5341 31.0875 23.484Z" fill="#FF9900"/>
  <path d="M18.9625 30.2619C24.1001 30.2619 30.075 28.6457 34.1876 25.6016C34.8625 25.1005 34.275 24.3365 33.5874 24.6496C28.975 26.6038 23.9625 27.5561 19.4 27.5561C12.6375 27.5561 6.1 25.6895 0.800267 22.6077C0.337426 22.3321 -0.0124268 22.8081 0.37492 23.159C5.27515 27.5936 11.7625 30.2619 18.9625 30.2619Z" fill="#FF9900"/>
  <path d="M10.8001 15.9187C10.8001 16.3823 10.85 16.758 10.9374 17.0336C11.0485 17.3436 11.1823 17.6451 11.3377 17.9355C11.4 18.0358 11.4251 18.1361 11.4251 18.2237C11.4251 18.3491 11.3501 18.4745 11.1875 18.5997L10.4001 19.1259C10.2876 19.2009 10.1749 19.2386 10.0751 19.2386C9.94993 19.2386 9.82504 19.1758 9.70014 19.063C9.53161 18.8816 9.38087 18.6845 9.24997 18.4743C9.11022 18.2336 8.9809 17.9869 8.86237 17.7351C7.88754 18.8877 6.66242 19.4641 5.18752 19.4641C4.13745 19.4641 3.30018 19.1634 2.68762 18.5622C2.07506 17.9608 1.76245 17.1587 1.76245 16.1568C1.76245 15.0918 2.13738 14.2274 2.89992 13.5761C3.66245 12.9245 4.67502 12.599 5.96272 12.599C6.38756 12.599 6.82506 12.6365 7.28765 12.6991C7.74998 12.7619 8.22498 12.8619 8.72506 12.9747V12.0601C8.72506 11.1081 8.52493 10.4441 8.13733 10.0558C7.73757 9.66741 7.06244 9.47969 6.10002 9.47969C5.66252 9.47969 5.2126 9.5296 4.75001 9.64233C4.29045 9.75211 3.83931 9.89451 3.4 10.0684C3.25786 10.1322 3.11171 10.1866 2.96249 10.2313C2.87509 10.2562 2.81252 10.2688 2.76236 10.2688C2.58756 10.2688 2.4999 10.1437 2.4999 9.88047V9.26664C2.4999 9.06625 2.52524 8.91577 2.58756 8.82837C2.64988 8.74047 2.76236 8.65281 2.93741 8.56491C3.37492 8.33944 3.90008 8.15172 4.51238 8.00124C5.12494 7.8386 5.77525 7.76311 6.46254 7.76311C7.95012 7.76311 9.03742 8.10156 9.73738 8.77796C10.4249 9.45436 10.775 10.4819 10.775 11.8598V15.9187H10.8001ZM5.72509 17.823C6.13752 17.823 6.56261 17.7477 7.01253 17.5975C7.46245 17.447 7.86246 17.1714 8.1999 16.7957C8.40004 16.5576 8.55001 16.2946 8.625 15.9939C8.69998 15.6932 8.74989 15.3299 8.74989 14.9041V14.3779C8.37088 14.2855 7.98698 14.2144 7.60001 14.1651C7.21032 14.1154 6.8179 14.0902 6.42505 14.0896C5.58753 14.0896 4.97497 14.2525 4.56254 14.5907C4.15012 14.9291 3.94998 15.4052 3.94998 16.0314C3.94998 16.6201 4.09996 17.0587 4.41257 17.3594C4.71252 17.6725 5.15002 17.823 5.72484 17.823H5.72509ZM15.7624 19.1758C15.5374 19.1758 15.3875 19.1383 15.2874 19.0506C15.1876 18.9754 15.0999 18.7998 15.025 18.5619L12.0876 8.87828C12.0126 8.62748 11.9751 8.46484 11.9751 8.37719C11.9751 8.1768 12.0749 8.06407 12.275 8.06407H13.4999C13.7375 8.06407 13.9002 8.10156 13.9876 8.18921C14.0876 8.26445 14.1624 8.44001 14.2376 8.67789L16.3377 16.971L18.2876 8.67789C18.35 8.42709 18.4249 8.26445 18.525 8.18921C18.6251 8.11397 18.7999 8.06407 19.0251 8.06407H20.025C20.2626 8.06407 20.425 8.10156 20.5251 8.18921C20.6251 8.26445 20.7125 8.44001 20.7624 8.67789L22.7374 17.0713L24.9001 8.67789C24.9749 8.42709 25.0623 8.26445 25.1499 8.18921C25.25 8.11397 25.4124 8.06407 25.6376 8.06407H26.7999C27 8.06407 27.1125 8.16413 27.1125 8.37719C27.1125 8.43976 27.1001 8.50233 27.0874 8.57757C27.0679 8.68439 27.0386 8.7892 27 8.89069L23.9876 18.5749C23.9124 18.8254 23.825 18.9881 23.7249 19.0633C23.6251 19.1385 23.4625 19.1887 23.2499 19.1887H22.175C21.9374 19.1887 21.7748 19.1509 21.675 19.0633C21.5751 18.9756 21.4875 18.8127 21.4376 18.5622L19.5001 10.4821L17.575 18.5498C17.5124 18.8003 17.4374 18.9632 17.3374 19.0509C17.2376 19.1385 17.0625 19.176 16.8376 19.176L15.7624 19.1758ZM31.825 19.5142C31.175 19.5142 30.5249 19.439 29.8999 19.2888C29.275 19.1383 28.7875 18.9754 28.4625 18.7874C28.2624 18.6747 28.1251 18.5493 28.0749 18.4368C28.0263 18.3262 28.0008 18.2068 27.9999 18.0859V17.447C27.9999 17.1841 28.1 17.0587 28.2875 17.0587C28.3624 17.0587 28.4374 17.0713 28.5124 17.0962C28.5874 17.1215 28.6999 17.1714 28.825 17.2216C29.2665 17.4161 29.7275 17.563 30.2001 17.6598C30.7 17.7601 31.1876 17.8103 31.6874 17.8103C32.4751 17.8103 33.0876 17.6725 33.5125 17.3969C33.9376 17.1212 34.1625 16.7205 34.1625 16.2067C34.1625 15.8561 34.05 15.5681 33.8251 15.3299C33.6001 15.0918 33.175 14.879 32.5625 14.6786L30.7501 14.1147C29.8376 13.8266 29.1625 13.4008 28.75 12.8369C28.3376 12.2856 28.1251 11.6718 28.1251 11.0205C28.1251 10.4943 28.2376 10.0307 28.4625 9.62992C28.6875 9.22915 28.9874 8.87828 29.3626 8.60265C29.7375 8.31461 30.1624 8.10156 30.6625 7.95133C31.1625 7.80085 31.6874 7.73828 32.2374 7.73828C32.5126 7.73828 32.8001 7.75095 33.075 7.78844C33.3625 7.82593 33.6249 7.87609 33.8874 7.92625C34.1374 7.98883 34.3751 8.0514 34.6 8.12639C34.825 8.20188 35 8.27687 35.1249 8.35211C35.3 8.45243 35.4251 8.55249 35.5001 8.66523C35.5751 8.76555 35.6126 8.90336 35.6126 9.07867V9.66767C35.6126 9.93088 35.5125 10.0687 35.3251 10.0687C35.225 10.0687 35.0626 10.0185 34.8501 9.91821C34.1374 9.59268 33.3374 9.42979 32.45 9.42979C31.7376 9.42979 31.175 9.54252 30.7876 9.7804C30.4 10.0185 30.2001 10.3818 30.2001 10.8956C30.2001 11.2462 30.325 11.5466 30.5751 11.7848C30.8251 12.0229 31.2874 12.261 31.9499 12.4738L33.725 13.0378C34.6251 13.3258 35.2749 13.7268 35.6625 14.2403C36.0501 14.7538 36.2376 15.3426 36.2376 15.9942C36.2376 16.5327 36.1251 17.0214 35.9125 17.4473C35.6876 17.8731 35.3876 18.2491 35 18.5498C34.6124 18.8629 34.1501 19.0884 33.6125 19.2513C33.0501 19.4266 32.4624 19.5142 31.825 19.5142Z" fill="#252F3E"/>
</svg>