<svg xmlns="http://www.w3.org/2000/svg" width="38" height="39" viewBox="0 0 38 39" fill="none">
  <path d="M33.202 19.8964C33.202 18.8666 33.1186 17.8314 32.9404 16.8184H18.6523V22.6516H26.8345C26.4949 24.5329 25.404 26.1972 23.8065 27.2547V31.0397H28.6879C31.5545 28.4013 33.202 24.5051 33.202 19.8964Z" fill="#4285F4"/>
  <path d="M18.6538 34.6965C22.7393 34.6965 26.1848 33.3551 28.6951 31.0396L23.8137 27.2547C22.4555 28.1787 20.7022 28.7018 18.6595 28.7018C14.7075 28.7018 11.3568 26.0357 10.1545 22.4512H5.11719V26.3529C7.68871 31.4682 12.9264 34.6965 18.6538 34.6965Z" fill="#34A853"/>
  <path d="M10.147 22.4516C9.51248 20.5703 9.51248 18.5331 10.147 16.6518V12.75H5.11528C2.96678 17.0303 2.96678 22.0731 5.11528 26.3534L10.147 22.4516Z" fill="#FBBC04"/>
  <path d="M18.6538 10.3961C20.8135 10.3627 22.9008 11.1753 24.4649 12.667L28.7897 8.34219C26.0512 5.77066 22.4165 4.35688 18.6538 4.40141C12.9264 4.40141 7.68871 7.62973 5.11719 12.7505L10.1489 16.6523C11.3456 13.0622 14.7019 10.3961 18.6538 10.3961Z" fill="#EA4335"/>
</svg>