<svg xmlns="http://www.w3.org/2000/svg" width="38" height="38" viewBox="0 0 38 38" fill="none">
  <g clip-path="url(#clip0_242_3138)">
    <path d="M19.0619 11.9051C15.142 11.9051 11.8338 15.0805 11.8338 19.1101C11.8163 21.0258 12.5722 22.8682 13.9316 24.2229C15.2909 25.5776 17.1396 26.331 19.0619 26.3136C22.9817 26.3136 26.2885 23.1382 26.2885 19.1101C26.2885 15.0805 22.9817 11.9051 19.0619 11.9051ZM7.79186 18.987C7.79186 12.8825 12.8145 7.87701 18.9398 7.87701C25.0637 7.87701 30.0863 12.8825 30.0863 18.987C30.0863 19.3533 30.0863 19.8427 29.9643 20.2091C29.8408 21.3066 30.6994 22.1608 31.8022 22.1608C33.6401 22.1608 33.8842 19.8427 33.8842 18.987C33.8842 10.8061 27.1457 4.09061 18.9398 4.09061C10.731 4.09061 3.99552 10.8061 3.99552 18.987C3.99552 27.1693 10.731 33.8833 18.9398 33.8833C23.3493 33.8833 27.2692 32.0517 29.9643 28.9995L33.0255 31.5638C29.7187 35.4718 24.5741 37.9146 19.0604 37.9146C14.0188 37.9301 9.17933 35.9406 5.6151 32.3871C2.05087 28.8336 0.0564648 24.0098 0.0740286 18.9855C0.0740286 8.60817 8.52552 0.0625 19.0619 0.0625C29.4732 0.0625 37.9261 8.60967 37.9261 18.9885C37.9261 23.1397 35.9661 26.5598 31.9242 26.5598C30.2083 26.5598 29.1071 25.704 28.494 24.8497C26.534 28.0251 22.9802 30.0999 18.9383 30.0999C15.9786 30.11 13.1373 28.9427 11.0444 26.857C8.95159 24.7713 7.7803 21.9396 7.79035 18.99L7.79186 18.987ZM19.0604 15.69C20.8983 15.69 22.3686 17.1553 22.3686 18.987C22.3686 20.8186 20.8983 22.284 19.0619 22.284C18.1834 22.2875 17.3398 21.9413 16.7186 21.3223C16.0974 20.7032 15.75 19.8625 15.7536 18.987C15.7536 17.1553 17.224 15.69 19.0619 15.69H19.0604Z" fill="#C02428"/>
  </g>
  <defs>
    <clipPath id="clip0_242_3138">
      <rect width="38" height="38" fill="white"/>
    </clipPath>
  </defs>
</svg>