<svg xmlns="http://www.w3.org/2000/svg" width="38" height="38" viewBox="0 0 38 38" fill="none">
  <path d="M34.6737 15.7266L19.8671 0.916996C19.6368 0.687363 19.3271 0.558594 19.0024 0.558594C18.6781 0.558594 18.3679 0.687363 18.138 0.916996L3.32624 15.7266C3.09623 15.9562 2.96783 16.2667 2.96783 16.5907V36.2193C2.96783 36.8942 3.51535 37.4415 4.19103 37.4415H33.8116C34.4873 37.4415 35.032 36.8942 35.032 36.2193V16.5907C35.0321 16.2782 34.9134 15.9653 34.6737 15.7266ZM19.0023 3.50938L32.0823 16.5907L28.4862 20.1872V16.0112C28.4862 15.2327 27.854 14.6012 27.0742 14.6012H10.9234C10.1459 14.6012 9.51415 15.2326 9.51415 16.0112V20.1858L5.92003 16.5907L19.0023 3.50938ZM5.41394 34.9974V19.5415L12.6476 26.7755L7.62499 31.4801C7.25441 31.8267 7.23489 32.4066 7.58149 32.7758C7.76289 32.9684 8.00766 33.0658 8.25206 33.0658C8.47494 33.0658 8.70019 32.9842 8.87721 32.8184L13.9457 28.0729L18.1378 32.2651C18.3678 32.4937 18.6779 32.6228 19.0023 32.6228C19.3269 32.6228 19.6368 32.4937 19.867 32.2651L24.0542 28.0752L29.123 32.8183C29.2997 32.9842 29.5249 33.0657 29.7477 33.0657C29.9922 33.0657 30.237 32.9683 30.4187 32.7758C30.765 32.4059 30.7454 31.8253 30.3748 31.4801L25.3522 26.7778L32.5886 19.5414V34.9974H5.41394V34.9974Z" fill="black"/>
</svg>