<svg xmlns="http://www.w3.org/2000/svg" width="38" height="38" viewBox="0 0 38 38" fill="none">
  <g clip-path="url(#clip0_242_3136)">
    <path fillRule="evenodd" clipRule="evenodd" d="M19.8234 4.82203C18.7409 4.63149 17.6258 4.82225 16.6682 5.3618C15.7106 5.90135 14.9698 6.7563 14.572 7.78091C14.1741 8.80552 14.144 9.93638 14.4866 10.9808C14.8292 12.0251 15.5234 12.9183 16.4509 13.5082C16.8047 13.7338 17.0545 14.0907 17.1453 14.5004C17.2362 14.9101 17.1606 15.3391 16.9354 15.6932L10.7255 25.4513C11.048 26.0693 11.1575 26.7764 11.0371 27.463C10.9167 28.1496 10.5732 28.7773 10.0597 29.2488C9.54621 29.7202 8.89152 30.0091 8.19716 30.0705C7.50279 30.1319 6.80755 29.9626 6.21927 29.5886C5.63099 29.2146 5.18253 28.657 4.94345 28.0022C4.70437 27.3474 4.68803 26.632 4.89697 25.967C5.1059 25.302 5.52843 24.7245 6.09903 24.3241C6.66963 23.9236 7.3564 23.7227 8.05285 23.7524L13.4995 15.1944C12.5169 14.2452 11.7967 13.0579 11.4089 11.748C11.0211 10.438 10.9789 9.04994 11.2864 7.71882C11.5939 6.3877 12.2406 5.15881 13.1637 4.15165C14.0867 3.14449 15.2547 2.39335 16.5541 1.97128C17.8534 1.5492 19.2399 1.47055 20.5786 1.74299C21.9173 2.01542 23.1628 2.62966 24.1938 3.52597C25.2249 4.42228 26.0064 5.57016 26.4625 6.85797C26.9185 8.14578 27.0335 9.52969 26.7963 10.8751C26.7602 11.0799 26.684 11.2756 26.5722 11.451C26.4604 11.6263 26.3152 11.778 26.1448 11.8972C25.9743 12.0164 25.7821 12.101 25.5791 12.1459C25.376 12.1909 25.1661 12.1954 24.9613 12.1592C24.7565 12.123 24.5608 12.0469 24.3854 11.935C24.21 11.8232 24.0584 11.678 23.9392 11.5076C23.8199 11.3372 23.7354 11.145 23.6905 10.9419C23.6455 10.7388 23.641 10.5289 23.6772 10.3241C23.8958 9.08367 23.6128 7.80719 22.8904 6.7754C22.168 5.7436 21.0637 5.04097 19.8234 4.82203ZM15.8334 9.49919C15.8337 9.01939 15.9431 8.54595 16.1532 8.11461C16.3634 7.68327 16.6688 7.30533 17.0464 7.00932C17.424 6.71331 17.8639 6.50698 18.3329 6.4059C18.802 6.30483 19.2878 6.31166 19.7538 6.42588C20.2199 6.5401 20.6538 6.75871 21.023 7.06522C21.3921 7.37173 21.6867 7.75811 21.8847 8.19518C22.0826 8.63225 22.1786 9.10859 22.1655 9.58821C22.1524 10.0678 22.0304 10.5382 21.8089 10.9638L27.2555 19.5217C28.5585 19.0231 29.9702 18.8777 31.3475 19.1002C32.7248 19.3227 34.0189 19.9053 35.0986 20.7888C36.1783 21.6724 37.0053 22.8257 37.4959 24.1317C37.9865 25.4378 38.1232 26.8503 37.8922 28.2262C37.6613 29.6022 37.0707 30.8926 36.1805 31.9668C35.2903 33.0411 34.132 33.861 32.823 34.3436C31.5139 34.8261 30.1006 34.9542 28.7261 34.7147C27.3516 34.4753 26.0649 33.8768 24.9961 32.98C24.6844 32.7073 24.492 32.3232 24.4601 31.9103C24.4283 31.4973 24.5595 31.0883 24.8257 30.771C25.0918 30.4536 25.4718 30.2532 25.884 30.2127C26.2962 30.1722 26.7078 30.2949 27.0307 30.5544C27.7032 31.1182 28.5187 31.4847 29.3868 31.6132C30.2549 31.7417 31.1417 31.6273 31.9487 31.2825C32.7557 30.9377 33.4514 30.3761 33.9586 29.66C34.4659 28.9438 34.7648 28.1012 34.8223 27.2255C34.8797 26.3498 34.6935 25.4753 34.2842 24.6991C33.8749 23.9228 33.2586 23.2751 32.5036 22.8278C31.7485 22.3805 30.8844 22.1511 30.0069 22.165C29.1294 22.179 28.273 22.4358 27.5326 22.9069C27.1784 23.132 26.7492 23.2073 26.3395 23.1161C25.9298 23.025 25.573 22.7749 25.3476 22.4208L19.1362 12.6627C18.7093 12.6811 18.2831 12.6129 17.8832 12.4622C17.4834 12.3115 17.1182 12.0814 16.8096 11.7858C16.501 11.4903 16.2554 11.1353 16.0877 10.7423C15.9199 10.3494 15.8334 9.92649 15.8334 9.49919ZM7.23902 20.4242C7.38226 20.8187 7.363 21.254 7.18545 21.6343C7.00791 22.0146 6.68661 22.3089 6.29218 22.4524C5.4758 22.7499 4.75664 23.2656 4.21298 23.9433C3.66932 24.6211 3.32198 25.435 3.20876 26.2965C3.09555 27.158 3.22079 28.034 3.57087 28.8293C3.92095 29.6245 4.48245 30.3085 5.19426 30.8067C5.90606 31.305 6.74091 31.5985 7.60793 31.6553C8.47496 31.7121 9.34095 31.5299 10.1116 31.1287C10.8823 30.7275 11.5282 30.1226 11.979 29.3798C12.4298 28.637 12.6682 27.7847 12.6683 26.9159C12.6683 26.4959 12.8351 26.0932 13.132 25.7963C13.4289 25.4993 13.8317 25.3325 14.2516 25.3325H27.3394C27.688 24.7288 28.226 24.257 28.87 23.9902C29.514 23.7235 30.2281 23.6767 30.9014 23.8571C31.5748 24.0375 32.1698 24.4351 32.5941 24.9881C33.0185 25.5412 33.2485 26.2188 33.2485 26.9159C33.2485 27.613 33.0185 28.2906 32.5941 28.8436C32.1698 29.3966 31.5748 29.7942 30.9014 29.9746C30.2281 30.155 29.514 30.1082 28.87 29.8415C28.226 29.5747 27.688 29.1029 27.3394 28.4992H15.675C15.3989 29.8519 14.7739 31.1089 13.8619 32.1455C12.95 33.182 11.7828 33.962 10.4762 34.4081C9.16967 34.8542 7.76917 34.9508 6.41372 34.6885C5.05827 34.4261 3.795 33.8138 2.74929 32.9124C1.70358 32.0109 0.911792 30.8517 0.452501 29.5497C-0.00678902 28.2478 -0.117608 26.8483 0.131042 25.4903C0.379692 24.1322 0.979166 22.8628 1.86997 21.8081C2.76077 20.7533 3.91192 19.9498 5.20918 19.4774C5.6037 19.3335 6.0392 19.3523 6.41986 19.5296C6.80053 19.7069 7.09519 20.0297 7.23902 20.4242Z" fill="black"/>
  </g>
  <defs>
    <clipPath id="clip0_242_3136">
      <rect width="38" height="38" fill="white"/>
    </clipPath>
  </defs>
</svg>