<svg xmlns="http://www.w3.org/2000/svg" width="38" height="39" viewBox="0 0 38 39" fill="none">
  <g clip-path="url(#clip0_167_2818)">
    <mask id="mask0_167_2818" style="mask-type:luminance" maskUnits="userSpaceOnUse" x="0" y="0" width="39" height="38">
      <path d="M38.001 0.652344H0.722656V37.9307H38.001V0.652344Z" fill="white"/>
    </mask>
    <g mask="url(#mask0_167_2818)">
      <path d="M19.3619 37.9308C29.656 37.9308 38.001 29.5857 38.001 19.2916C38.001 8.9974 29.656 0.652344 19.3619 0.652344C9.06771 0.652344 0.722656 8.9974 0.722656 19.2916C0.722656 29.5857 9.06771 37.9308 19.3619 37.9308Z" fill="#2F84ED"/>
      <path fillRule="evenodd" clipRule="evenodd" d="M8.91406 11.4414H11.1169L12.8114 14.548L14.4494 11.4414H16.5392L13.7715 16.4118V19.0665H11.7382V16.4683L8.91406 11.4414Z" fill="white"/>
      <path d="M15.918 15.2821C15.918 12.9663 17.7819 11.3848 19.9282 11.3848C22.0746 11.3848 23.9385 13.0228 23.9385 15.2821C23.9385 17.5979 22.0746 19.2359 19.9282 19.2359C17.7819 19.1793 15.918 17.5979 15.918 15.2821ZM21.8486 15.2821C21.8486 14.0959 21.1144 13.1358 19.8717 13.1358C18.6291 13.1358 17.8948 14.0959 17.8948 15.2821C17.8948 16.4682 18.6291 17.4284 19.8717 17.4284C21.1708 17.4284 21.8486 16.4682 21.8486 15.2821Z" fill="white"/>
      <path fillRule="evenodd" clipRule="evenodd" d="M25.801 13.1358H23.8241V11.4414H29.8112V13.1358H27.8343V19.0665H25.801V13.1358Z" fill="white"/>
      <path d="M11.512 27.4258H9.53516V19.8008H12.3593C14.3926 19.8008 15.5223 21.0998 15.5223 22.7943C15.5223 24.4888 14.3926 25.7879 12.3593 25.7879H11.512V27.4258ZM12.2463 24.0369C13.15 24.0369 13.4889 23.5286 13.4889 22.7943C13.4889 22.06 13.15 21.4952 12.2463 21.4952H11.512V24.0369H12.2463Z" fill="white"/>
      <path d="M15.8594 23.6415C15.8594 21.3256 17.7233 19.7441 19.8696 19.7441C22.016 19.7441 23.8799 21.3821 23.8799 23.6415C23.8799 25.9572 22.016 27.5952 19.8696 27.5952C17.7233 27.5387 15.8594 25.9572 15.8594 23.6415ZM21.8465 23.6415C21.8465 22.4553 21.1122 21.4951 19.8696 21.4951C18.627 21.4951 17.8928 22.4553 17.8928 23.6415C17.8928 24.8276 18.627 25.7878 19.8696 25.7878C21.1122 25.7878 21.8465 24.8276 21.8465 23.6415Z" fill="white"/>
      <path fillRule="evenodd" clipRule="evenodd" d="M23.8789 26.4656C23.8789 25.7878 24.3872 25.3359 24.9521 25.3359C25.5169 25.3359 26.0252 25.7878 26.0252 26.4656C26.0252 27.1434 25.5169 27.5953 24.9521 27.5953C24.3872 27.5388 23.8789 27.087 23.8789 26.4656Z" fill="white"/>
    </g>
  </g>
  <defs>
    <clipPath id="clip0_167_2818">
      <rect width="38" height="38" fill="white" transform="translate(0 0.34375)"/>
    </clipPath>
  </defs>
</svg>