<svg xmlns="http://www.w3.org/2000/svg" width="38" height="39" viewBox="0 0 38 39" fill="none">
  <g clip-path="url(#clip0_167_2794)">
    <mask id="mask0_167_2794" style="mask-type:luminance" maskUnits="userSpaceOnUse" x="0" y="1" width="38" height="38">
      <path d="M37.2088 19.6025C37.2088 9.3966 28.9352 1.12305 18.7293 1.12305C8.52334 1.12305 0.249786 9.3966 0.249786 19.6025C0.249786 29.8085 8.52334 38.082 18.7293 38.082C28.9352 38.082 37.2088 29.8085 37.2088 19.6025Z" fill="white"/>
    </mask>
    <g mask="url(#mask0_167_2794)">
      <path d="M37.2088 19.6025C37.2088 9.3966 28.9352 1.12305 18.7293 1.12305C8.52334 1.12305 0.249786 9.3966 0.249786 19.6025C0.249786 29.8085 8.52334 38.082 18.7293 38.082C28.9352 38.082 37.2088 29.8085 37.2088 19.6025Z" fill="#FF4A00"/>
      <path d="M22.0502 20.0042C22.0503 20.9758 21.8748 21.9393 21.5324 22.8485C20.6228 23.191 19.659 23.3666 18.6872 23.3668H18.6753C17.7034 23.3669 16.7396 23.1915 15.8301 22.849C15.4871 21.9396 15.3114 20.9757 15.3115 20.0038V19.9911C15.3115 18.9898 15.4953 18.0308 15.828 17.1459C16.7377 16.8029 17.7019 16.6274 18.674 16.6281H18.685C19.6868 16.6281 20.6453 16.8119 21.5302 17.1459C21.8731 18.0553 22.0485 19.0192 22.048 19.9911V20.0038L22.0502 20.0042ZM31.9685 17.7517H24.1036L29.6645 12.1905C28.79 10.9625 27.7164 9.8892 26.4882 9.01509L20.9264 14.5763V6.71099C20.187 6.5866 19.4384 6.52386 18.6884 6.52344H18.674C17.9111 6.52344 17.1638 6.58863 16.4356 6.71099V14.5763L10.8726 9.01467C10.26 9.4507 9.685 9.93734 9.15366 10.4695L9.15114 10.472C8.61983 11.0037 8.13365 11.5787 7.69763 12.191L13.2606 17.7517H5.39395C5.39395 17.7517 5.20682 19.2294 5.20682 19.9932V20.0025C5.20682 20.7663 5.27159 21.5149 5.39437 22.2435H13.261L7.6972 27.8039C8.57227 29.0318 9.64589 30.1052 10.8739 30.9802L16.436 25.4194V33.2852C17.1634 33.4071 17.9094 33.4715 18.6715 33.4722H18.6906C19.4396 33.4716 20.1873 33.409 20.926 33.2852V25.4194L26.4886 30.9815C27.1013 30.5451 27.6767 30.0585 28.2088 29.5267C28.7399 28.9944 29.2272 28.419 29.6631 27.8064L24.1024 22.2439H31.9689C32.0909 21.5157 32.1552 20.7697 32.1552 20.0076V19.9881C32.1552 19.2387 32.0922 18.4906 31.9685 17.7517Z" fill="white"/>
    </g>
  </g>
  <defs>
    <clipPath id="clip0_167_2794">
      <rect width="38" height="38" fill="white" transform="translate(0 0.34375)"/>
    </clipPath>
  </defs>
</svg>