<?xml version="1.0" encoding="UTF-8"?>
<!DOCTYPE svg PUBLIC "-//W3C//DTD SVG 1.1//EN" "http://www.w3.org/Graphics/SVG/1.1/DTD/svg11.dtd">
<!-- Creator: CorelDRAW 2021 (64-Bit) -->
<svg xmlns="http://www.w3.org/2000/svg" xml:space="preserve" width="254px" height="363px" version="1.1" style="shape-rendering:geometricPrecision; text-rendering:geometricPrecision; image-rendering:optimizeQuality; fillRule:evenodd; clipRule:evenodd"
viewBox="0 0 673 964"
 xmlns:xlink="http://www.w3.org/1999/xlink"
 xmlns:xodm="http://www.corel.com/coreldraw/odm/2003">
 <defs>
  <style type="text/css">
   <![CDATA[
    .fil0 {fill:#023047}
   ]]>
  </style>
 </defs>
 <g id="Layer_x0020_1">
  <metadata id="CorelCorpID_0Corel-Layer"/>
  <path class="fil0" d="M518 563c11,-3 13,1 20,5 -5,22 -15,45 -26,60 -20,-3 -46,-8 -62,-16l0 -24 67 -25zm-118 -172l34 14c20,4 10,-11 15,-26l-49 11zm37 420c-131,-34 -223,-142 -247,-265 -12,-64 -5,-98 -1,-159 -19,23 -36,105 -39,142 -5,55 5,108 23,153 34,83 102,149 169,190 22,-6 84,-49 96,-62zm-87 92c-20,10 -25,3 -43,-7 -175,-92 -306,-281 -229,-482 19,-48 32,-57 44,-81 -39,18 -61,57 -74,70 -2,-126 -6,-144 108,-144 81,0 170,4 250,0l49 1 -25 70c14,9 34,23 47,29l0 38 76 51c3,2 10,8 12,10 8,8 6,12 -5,14l-24 0c7,8 17,13 26,20 -1,9 -4,18 -7,27 -4,14 -4,11 -20,16 -100,34 -87,47 -144,2 5,-11 31,-28 47,-48l-94 7 -39 -85c-15,84 13,156 54,201 33,37 112,75 187,75 15,-17 34,-77 40,-105 10,-47 9,-83 9,-131 0,-139 16,-162 -52,-161 -24,0 -47,0 -71,0 2,-10 5,-25 13,-30 35,0 86,-6 113,11 29,19 25,56 25,99 0,80 5,159 -13,235 -33,135 -140,238 -260,299zm55 -674l-195 0c-10,-5 -13,-24 -16,-34 -10,-26 -37,-92 -41,-110 13,6 18,13 31,18l46 31 -16 30c30,40 105,63 105,10 0,-18 -14,-23 -22,-33 2,-7 33,-83 40,-91l39 91c-14,18 -23,14 -22,36 3,51 80,25 105,-13l-15 -30 76 -49c-6,22 -19,51 -27,74 -32,86 -11,70 -86,70zm-279 -189c-40,23 -12,69 4,112 6,17 17,41 21,58 -65,0 -93,2 -126,40 -32,36 -25,87 -25,142 0,120 -5,191 39,293 49,114 143,196 244,253 62,35 49,29 82,13 132,-64 250,-188 290,-329 23,-82 16,-185 16,-273 0,-56 -3,-79 -35,-109 -34,-32 -63,-30 -117,-30 6,-24 21,-57 30,-81 11,-29 29,-59 4,-83 -28,-27 -56,-2 -77,12 -19,12 -50,35 -68,44 -25,-30 -24,-101 -72,-103 -51,-1 -48,73 -74,103 -37,-17 -100,-84 -137,-63z"/>
 </g>
</svg>
