<?xml version="1.0" encoding="UTF-8"?>
<!DOCTYPE svg PUBLIC "-//W3C//DTD SVG 1.1//EN" "http://www.w3.org/Graphics/SVG/1.1/DTD/svg11.dtd">
<!-- Creator: CorelDRAW 2021 (64-Bit) -->
<svg xmlns="http://www.w3.org/2000/svg" xml:space="preserve" width="254px" height="363px" version="1.1" style="shape-rendering:geometricPrecision; text-rendering:geometricPrecision; image-rendering:optimizeQuality; fillRule:evenodd; clipRule:evenodd"
viewBox="0 0 2457 3516"
 xmlns:xlink="http://www.w3.org/1999/xlink"
 xmlns:xodm="http://www.corel.com/coreldraw/odm/2003">
 <defs>
  <style type="text/css">
   <![CDATA[
    .fil0 {fill:black}
   ]]>
  </style>
 </defs>
 <g id="Layer_x0020_1">
  <metadata id="CorelCorpID_0Corel-Layer"/>
  <path class="fil0" d="M1891 2053c41,-10 47,5 72,19 -17,82 -56,163 -95,218 -73,-9 -168,-30 -224,-60l2 -86 246 -92zm-430 -629l126 53c73,16 37,-41 54,-94l-180 41zm136 1532c-479,-123 -815,-517 -902,-965 -45,-233 -17,-356 -5,-580 -68,83 -131,384 -142,519 -16,199 18,393 86,559 123,303 371,542 615,694 82,-21 306,-180 348,-227zm-317 336c-73,37 -90,9 -157,-27 -638,-335 -1117,-1025 -835,-1759 67,-176 117,-207 159,-296 -144,67 -222,207 -270,257 -7,-461 -20,-526 392,-526 294,0 621,14 911,1l177 2 -91 256c50,32 123,84 173,106l1 140 275 186c10,8 38,29 44,35 29,28 23,42 -16,50l-88 1c26,27 62,46 94,72 -5,33 -16,65 -26,98 -15,51 -15,38 -73,58 -364,125 -317,170 -526,6 18,-42 111,-102 172,-177l-343 24 -141 -309c-55,308 48,569 196,734 122,135 409,275 683,272 53,-60 125,-281 146,-381 35,-170 33,-302 33,-477 0,-507 59,-590 -188,-589 -86,0 -172,0 -259,0 9,-36 18,-92 49,-109 127,0 315,-23 412,41 106,70 93,202 93,360 0,292 19,579 -48,859 -118,493 -510,869 -949,1091zm200 -2457l-710 0c-35,-18 -46,-89 -59,-123 -36,-95 -133,-335 -150,-403 46,21 64,48 113,65l166 115 -57 110c109,147 381,229 382,38 0,-67 -52,-83 -81,-122 9,-27 120,-301 147,-333l140 333c-52,66 -85,51 -81,131 10,186 293,90 384,-46l-56 -110 276 -180c-20,82 -68,187 -99,270 -118,313 -41,257 -315,256zm-1018 -690c-146,85 -44,251 15,407 24,63 62,149 78,213 -238,0 -340,6 -461,145 -115,132 -91,316 -91,519 0,437 -19,696 143,1069 180,415 523,716 890,924 224,127 177,106 300,47 483,-235 912,-686 1059,-1201 85,-298 60,-676 60,-996 0,-203 -10,-287 -126,-398 -122,-117 -229,-109 -428,-108 22,-86 77,-209 110,-295 40,-104 106,-215 13,-303 -103,-98 -203,-5 -280,45 -68,44 -181,129 -249,161 -92,-110 -88,-370 -262,-374 -185,-4 -176,267 -270,375 -136,-63 -365,-307 -499,-229z"/>
 </g>
</svg>
