<?xml version="1.0" encoding="UTF-8"?>
<!DOCTYPE svg PUBLIC "-//W3C//DTD SVG 1.1//EN" "http://www.w3.org/Graphics/SVG/1.1/DTD/svg11.dtd">
<!-- Creator: CorelDRAW 2021 (64-Bit) -->
<svg xmlns="http://www.w3.org/2000/svg" xml:space="preserve" width="472px" height="115px" version="1.1" style="shape-rendering:geometricPrecision; text-rendering:geometricPrecision; image-rendering:optimizeQuality; fillRule:evenodd; clipRule:evenodd"
viewBox="0 0 4720 1148"
 xmlns:xlink="http://www.w3.org/1999/xlink"
 xmlns:xodm="http://www.corel.com/coreldraw/odm/2003">
 <defs>
  <style type="text/css">
   <![CDATA[
    .fil1 {fill:#FB8500}
    .fil0 {fill:#FB8500;fillRule:nonzero}
   ]]>
  </style>
 </defs>
 <g id="Layer_x0020_1">
  <metadata id="CorelCorpID_0Corel-Layer"/>
  <g id="_2158386542000">
   <path class="fil0" d="M1752 933c3,15 10,28 22,40 12,12 18,21 18,28l0 3c0,9 -7,14 -21,14l-152 0c-14,0 -21,-5 -21,-14l0 -3c0,-5 6,-14 19,-27 13,-13 18,-26 15,-41l-80 -462 -184 522c-6,16 -16,24 -29,24 -15,0 -26,-8 -32,-23l-196 -535 -74 474c-2,14 4,28 18,41 14,13 21,22 21,28l0 3c0,9 -7,14 -22,14l-101 0c-15,0 -22,-5 -22,-14l0 -3c0,-7 6,-16 19,-29 12,-13 20,-26 22,-39l90 -541c2,-15 -3,-28 -16,-41 -12,-12 -19,-21 -19,-27l0 -3c0,-10 6,-15 18,-15l161 0c13,0 19,5 19,15l0 3c0,4 -3,9 -10,16 -6,7 -12,14 -17,23 -5,8 -5,18 -1,29l158 460 161 -465c4,-13 0,-26 -12,-39 -12,-12 -18,-20 -18,-24l0 -3c0,-10 6,-15 18,-15l165 0c12,0 18,5 18,14l0 3c0,5 -7,15 -20,28 -13,13 -18,29 -15,46l100 535z"/>
   <path id="_1" class="fil0" d="M2349 575c0,4 -3,9 -10,15 -7,6 -13,13 -20,23 -7,9 -10,20 -10,33l0 290c0,15 6,28 19,40 13,12 19,21 19,26l0 3c0,9 -6,14 -17,14l-104 0c-13,0 -19,-6 -19,-19l0 -40c-33,46 -81,69 -144,69 -64,0 -119,-23 -165,-69 -46,-46 -69,-107 -69,-182 0,-73 23,-133 68,-179 45,-47 101,-70 168,-70 58,0 105,21 142,63l0 -37c0,-9 3,-15 10,-19 7,-4 16,-5 27,-2l87 18c12,3 18,10 18,21l0 3zm-259 415c27,0 52,-11 74,-34 22,-23 33,-54 33,-95l0 -160c0,-33 -13,-64 -38,-93 -25,-28 -55,-43 -89,-43 -37,0 -67,15 -90,46 -23,30 -34,72 -35,125 -1,70 12,130 39,179 27,49 63,75 108,75z"/>
   <path id="_2" class="fil0" d="M2519 455c-25,0 -45,-7 -60,-21 -15,-14 -23,-32 -23,-54 0,-22 8,-40 23,-54 15,-14 35,-21 60,-21 24,0 44,7 59,21 15,14 23,32 23,54 0,22 -8,40 -23,54 -15,14 -35,21 -59,21zm-74 564c-14,0 -21,-5 -21,-15l0 -4c0,-6 6,-15 19,-26 12,-11 19,-24 19,-39l0 -262c0,-15 -6,-30 -19,-43 -12,-13 -19,-22 -19,-26l0 -3c0,-5 6,-11 18,-18l100 -50c11,-5 20,-5 27,-2 6,4 10,10 10,19l0 385c0,15 7,28 21,39 14,11 21,20 21,26l0 4c0,10 -7,15 -22,15l-152 0z"/>
   <path id="_3" class="fil0" d="M2704 1018c-14,0 -21,-5 -21,-15l0 -3c0,-7 6,-16 19,-27 12,-11 19,-24 19,-38l0 -528c0,-16 -6,-30 -19,-43 -12,-13 -19,-21 -19,-25l0 -3c0,-6 6,-12 17,-18l101 -50c11,-5 20,-5 27,-2 6,4 10,10 10,18l0 651c0,14 7,27 21,39 14,12 21,21 21,27l0 3c0,10 -7,15 -22,15l-152 0z"/>
   <path id="_4" class="fil0" d="M3220 528c29,0 51,8 68,24 16,16 25,36 25,60 0,42 -17,63 -52,63 -15,0 -26,-4 -34,-12 -8,-8 -13,-17 -15,-27 -2,-10 -7,-19 -14,-27 -7,-8 -17,-12 -30,-12 -22,0 -39,12 -51,36 -12,24 -18,53 -18,88l0 214c0,15 8,28 23,39 15,11 23,20 23,26l0 4c0,9 -7,14 -21,14l-155 0c-14,0 -21,-5 -21,-14l0 -4c0,-6 6,-15 19,-26 13,-11 19,-24 19,-39l0 -269c0,-15 -7,-29 -22,-40 -14,-11 -22,-20 -22,-26l0 -3c0,-7 6,-14 18,-21l98 -45c19,-9 29,-4 29,17l0 78c23,-66 67,-99 133,-99z"/>
   <path id="_5" class="fil0" d="M3447 455c-25,0 -45,-7 -60,-21 -15,-14 -23,-32 -23,-54 0,-22 8,-40 23,-54 15,-14 35,-21 60,-21 24,0 44,7 59,21 15,14 23,32 23,54 0,22 -8,40 -23,54 -15,14 -35,21 -59,21zm-74 564c-14,0 -21,-5 -21,-15l0 -4c0,-6 6,-15 19,-26 12,-11 19,-24 19,-39l0 -262c0,-15 -6,-30 -19,-43 -12,-13 -19,-22 -19,-26l0 -3c0,-5 6,-11 18,-18l100 -50c11,-5 20,-5 27,-2 6,4 10,10 10,19l0 385c0,15 7,28 21,39 14,11 21,20 21,26l0 4c0,10 -7,15 -22,15l-152 0z"/>
   <path id="_6" class="fil0" d="M3879 1028c-82,0 -148,-25 -197,-75 -49,-50 -74,-110 -74,-180 0,-70 24,-129 72,-175 48,-47 107,-70 176,-70 77,0 141,25 190,74 49,49 74,109 74,180 0,70 -22,129 -67,176 -45,47 -103,71 -174,71zm15 -38c32,0 58,-15 78,-45 20,-30 30,-71 30,-124 0,-71 -15,-131 -46,-181 -30,-50 -68,-75 -114,-75 -36,0 -65,15 -86,44 -21,29 -32,71 -32,125 0,65 16,124 48,177 32,53 72,79 121,79z"/>
   <path id="_7" class="fil0" d="M4684 934c1,15 7,28 19,40 12,12 18,21 18,27l0 4c0,10 -7,15 -22,15l-146 0c-15,0 -22,-5 -22,-15l0 -4c0,-6 6,-15 19,-27 12,-12 18,-25 18,-40l-10 -193c-5,-110 -40,-165 -105,-165 -31,0 -57,12 -76,35 -19,23 -29,53 -29,90l0 235c0,15 7,28 21,39 14,11 21,20 21,26l0 4c0,10 -7,15 -22,15l-155 0c-14,0 -21,-5 -21,-15l0 -4c0,-6 7,-15 20,-26 13,-11 20,-24 20,-39l0 -268c0,-13 -4,-23 -12,-31 -8,-8 -15,-15 -23,-20 -7,-5 -11,-11 -11,-17l0 -3c0,-7 6,-13 18,-18l97 -47c11,-5 19,-5 24,-2 5,4 8,10 8,20l0 65c14,-27 34,-49 61,-64 27,-15 57,-23 91,-23 51,0 95,18 130,53 35,35 55,90 60,164l12 189z"/>
   <path class="fil1" d="M617 670c13,-3 15,2 24,6 -5,27 -18,53 -31,71 -24,-3 -55,-10 -73,-19l1 -28 80 -30zm-140 -205l41 17c24,5 12,-14 18,-31l-59 13zm44 500c-156,-40 -266,-169 -295,-315 -15,-76 -6,-116 -2,-189 -22,27 -43,125 -46,169 -5,65 6,129 28,183 40,99 121,177 201,227 27,-7 100,-59 114,-74zm-104 110c-24,12 -29,3 -51,-9 -208,-109 -365,-335 -273,-575 22,-57 38,-68 52,-97 -47,22 -72,68 -88,84 -2,-150 -7,-172 128,-172 96,0 203,5 298,0l58 1 -30 84c16,10 40,27 56,35l0 46 90 61c3,2 12,9 14,12 9,9 8,14 -5,16l-29 1c9,9 20,15 31,23 -2,11 -5,21 -9,32 -5,17 -5,12 -24,19 -119,41 -103,56 -172,2 6,-14 36,-33 56,-58l-112 8 -46 -101c-18,100 16,186 64,240 40,44 133,90 223,89 17,-20 41,-92 48,-124 12,-56 11,-99 11,-156 0,-166 20,-193 -61,-192 -28,0 -56,0 -85,0 3,-12 6,-30 16,-36 42,0 103,-8 135,13 35,23 30,66 30,118 0,95 6,189 -16,280 -39,161 -167,284 -310,356zm65 -802l-232 0c-12,-6 -15,-29 -19,-40 -12,-31 -44,-109 -49,-132 15,7 21,16 37,21l54 37 -19 36c36,48 125,75 125,12 0,-22 -17,-27 -27,-40 3,-9 39,-98 48,-109l46 109c-17,22 -28,17 -26,43 3,61 96,29 125,-15l-18 -36 90 -59c-7,27 -22,61 -32,88 -39,102 -14,84 -103,84zm-332 -225c-48,28 -14,82 5,133 8,21 20,49 26,70 -78,0 -111,2 -151,47 -38,43 -30,103 -30,169 0,143 -6,227 47,349 59,136 171,234 291,302 73,41 58,35 98,15 158,-77 298,-224 346,-392 28,-97 20,-221 20,-325 0,-66 -3,-94 -41,-130 -40,-38 -75,-35 -140,-35 7,-28 25,-68 36,-96 13,-34 35,-70 4,-99 -34,-32 -66,-2 -91,15 -22,15 -59,42 -81,53 -30,-36 -29,-121 -86,-122 -60,-1 -58,87 -88,122 -44,-21 -119,-100 -163,-75z"/>
  </g>
 </g>
</svg>
