<?xml version="1.0" encoding="UTF-8"?>
<!DOCTYPE svg PUBLIC "-//W3C//DTD SVG 1.1//EN" "http://www.w3.org/Graphics/SVG/1.1/DTD/svg11.dtd">
<!-- Creator: CorelDRAW 2021 (64-Bit) -->
<svg xmlns="http://www.w3.org/2000/svg" xml:space="preserve" width="254px" height="363px" version="1.1" style="shape-rendering:geometricPrecision; text-rendering:geometricPrecision; image-rendering:optimizeQuality; fillRule:evenodd; clipRule:evenodd"
viewBox="0 0 1491 2134"
 xmlns:xlink="http://www.w3.org/1999/xlink"
 xmlns:xodm="http://www.corel.com/coreldraw/odm/2003">
 <defs>
  <style type="text/css">
   <![CDATA[
    .fil0 {fill:#FB8500}
   ]]>
  </style>
 </defs>
 <g id="Layer_x0020_1">
  <metadata id="CorelCorpID_0Corel-Layer"/>
  <path class="fil0" d="M1148 1246c25,-6 28,3 44,12 -10,49 -34,99 -58,133 -45,-6 -102,-18 -136,-36l1 -52 149 -56zm-261 -382l76 32c45,10 22,-25 33,-57l-109 25zm82 930c-291,-75 -495,-314 -547,-586 -28,-141 -10,-216 -3,-352 -42,50 -80,233 -86,315 -10,121 11,239 52,339 75,184 225,329 373,421 50,-13 186,-109 212,-138zm-193 204c-44,23 -54,6 -96,-16 -387,-203 -678,-622 -507,-1068 41,-107 71,-126 97,-179 -87,40 -134,126 -164,156 -4,-280 -12,-319 238,-319 179,0 377,9 553,0l107 1 -55 155c31,19 75,51 105,64l0 85 167 113c6,5 23,18 27,21 17,17 14,26 -10,30l-53 1c16,17 37,28 57,44 -3,20 -10,40 -16,60 -9,31 -9,23 -44,35 -221,76 -192,103 -319,4 11,-25 67,-62 105,-107l-208 15 -86 -188c-33,187 29,346 119,446 74,82 248,167 414,165 32,-36 76,-171 89,-231 22,-103 20,-183 20,-290 0,-308 36,-358 -114,-357 -52,0 -105,0 -157,0 5,-22 11,-56 30,-66 77,0 191,-14 250,25 64,42 56,123 56,218 0,177 12,351 -29,521 -72,299 -310,527 -576,662zm121 -1491l-431 0c-21,-11 -28,-54 -36,-75 -22,-58 -81,-203 -91,-245 28,13 39,29 68,39l101 70 -35 67c66,89 231,139 232,23 0,-41 -32,-50 -49,-74 5,-16 73,-183 89,-202l85 202c-31,40 -52,31 -49,79 6,113 178,55 233,-28l-34 -67 168 -109c-12,50 -41,114 -60,164 -71,190 -25,156 -191,155zm-618 -419c-89,51 -27,153 9,247 14,38 38,91 47,130 -144,0 -207,3 -280,88 -70,80 -55,192 -55,315 0,265 -12,423 87,649 109,252 317,435 540,561 136,77 107,65 182,28 293,-142 553,-416 643,-729 52,-181 36,-410 36,-604 0,-123 -6,-174 -77,-242 -74,-71 -139,-66 -260,-66 13,-52 46,-127 66,-179 24,-63 64,-131 8,-184 -62,-59 -123,-3 -170,27 -41,27 -110,78 -151,98 -56,-67 -53,-225 -159,-227 -112,-2 -107,162 -164,227 -82,-38 -221,-186 -303,-139z"/>
 </g>
</svg>
