<svg width="800px" height="800px" viewBox="0 -0.5 25 25" fill="none" xmlns="http://www.w3.org/2000/svg">
<path d="M11.75 9.874C11.75 10.2882 12.0858 10.624 12.5 10.624C12.9142 10.624 13.25 10.2882 13.25 9.874H11.75ZM13.25 4C13.25 3.58579 12.9142 3.25 12.5 3.25C12.0858 3.25 11.75 3.58579 11.75 4H13.25ZM9.81082 6.66156C10.1878 6.48991 10.3542 6.04515 10.1826 5.66818C10.0109 5.29121 9.56615 5.12478 9.18918 5.29644L9.81082 6.66156ZM5.5 12.16L4.7499 12.1561L4.75005 12.1687L5.5 12.16ZM12.5 19L12.5086 18.25C12.5029 18.25 12.4971 18.25 12.4914 18.25L12.5 19ZM19.5 12.2 6.66156C17.3475 7.6444 18.7376 9.79237 18.75 12.1639L20.25 12.1561Z" fill="#000000"/>
</svg>