<svg width="54" height="54" viewBox="0 0 54 54" fill="none" xmlns="http://www.w3.org/2000/svg">
<path opacity="0.4" d="M40.4947 16.11C40.3597 16.0875 40.2022 16.0875 40.0672 16.11C36.9622 15.9975 34.4872 13.455 34.4872 10.305C34.4872 7.0875 37.0747 4.5 40.2922 4.5C43.5097 4.5 46.0972 7.11 46.0972 10.305C46.0747 13.455 43.5997 15.9975 40.4947 16.11Z" stroke="#344054" strokeWidth="3.375" strokeLinecap="round" strokeLinejoin="round"/>
<path opacity="0.4" d="M38.1769 32.4901C41.2594 33.0076 44.6569 32.4676 47.0419 30.8701C50.2144 28.7551 50.2144 25.2901 47.0419 23.1751C44.6344 21.5776 41.1919 21.0376 38.1094 21.5776" stroke="#344054" strokeWidth="3.375" strokeLinecap="round" strokeLinejoin="round"/>
<path opacity="0.4" d="M13.4268 16.11C13.5618 16.0875 13.7193 16.0875 13.8543 16.11C16.9593 15.9975 19.4343 13.455 19.4343 10.305C19.4343 7.0875 16.8468 4.5 13.6293 4.5C10.4118 4.5 7.82434 7.11 7.82434 10.305C7.84684 13.455 10.3218 15.9975 13.4268 16.11Z" stroke="#344054" strokeWidth="3.375" strokeLinecap="round" strokeLinejoin="round"/>
<path opacity="0.4" d="M15.7444 32.4901C12.6619 33.0076 9.26437 32.4676 6.87938 30.8701C3.70688 28.7551 3.70688 25.2901 6.87938 23.1751C9.28688 21.5776 12.7294 21.0376 15.8119 21.5776" stroke="#344054" strokeWidth="3.375" strokeLinecap="round" strokeLinejoin="round"/>
<path d="M26.9999 32.9174C26.8649 32.8949 26.7074 32.8949 26.5724 32.9174C23.4674 32.8049 20.9924 30.2624 20.9924 27.1124C20.9924 23.8949 23.5799 21.3074 26.7974 21.3074C30.0149 21.3074 32.6024 23.9174 32.6024 27.1124C32.5799 30.2624 30.1049 32.8274 26.9999 32.9174Z" stroke="#344054" strokeWidth="3.375" strokeLinecap="round" strokeLinejoin="round"/>
<path d="M20.4524 40.0049C17.2799 42.1199 17.2799 45.5849 20.4524 47.6999C24.0524 50.1074 29.9474 50.1074 33.5474 47.6999C36.7199 45.5849 36.7199 42.1199 33.5474 40.0049C29.9699 37.6199 24.0524 37.6199 20.4524 40.0049Z" stroke="#344054" strokeWidth="3.375" strokeLinecap="round" strokeLinejoin="round"/>
</svg>
