<svg width="40" height="40" viewBox="0 0 40 40" fill="none" xmlns="http://www.w3.org/2000/svg">
<path d="M36.1334 28.2666L30.9167 16.0832C29.15 11.9499 25.9 11.7832 23.7167 15.7166L20.5667 21.3999C18.9667 24.2832 15.9834 24.5332 13.9167 21.9499L13.55 21.4832C11.4 18.7832 8.36671 19.1166 6.81671 22.1999L3.95004 27.9499C1.93337 31.9499 4.85004 36.6666 9.31671 36.6666H30.5834C34.9167 36.6666 37.8334 32.2499 36.1334 28.2666Z" stroke="#023047" strokeWidth="2.5" strokeLinecap="round" strokeLinejoin="round"/>
<path opacity="0.4" d="M11.6166 13.3333C14.378 13.3333 16.6166 11.0947 16.6166 8.33325C16.6166 5.57183 14.378 3.33325 11.6166 3.33325C8.85515 3.33325 6.61658 5.57183 6.61658 8.33325C6.61658 11.0947 8.85515 13.3333 11.6166 13.3333Z" stroke="#023047" strokeWidth="2.5" strokeLinecap="round" strokeLinejoin="round"/>
</svg>
