<svg width="71" height="71" viewBox="0 0 71 71" fill="none" xmlns="http://www.w3.org/2000/svg">
<path d="M26.4808 64.729H44.1347C58.8462 64.729 64.7308 58.8444 64.7308 44.1328V26.479C64.7308 11.7674 58.8462 5.88281 44.1347 5.88281H26.4808C11.7693 5.88281 5.88466 11.7674 5.88466 26.479V44.1328C5.88466 58.8444 11.7693 64.729 26.4808 64.729Z" stroke="#344054" strokeWidth="5.26518" strokeLinecap="round" strokeLinejoin="round"/>
<path d="M26.4808 29.4235C29.7307 29.4235 32.3654 26.7889 32.3654 23.5389C32.3654 20.2889 29.7307 17.6543 26.4808 17.6543C23.2308 17.6543 20.5961 20.2889 20.5961 23.5389C20.5961 26.7889 23.2308 29.4235 26.4808 29.4235Z" stroke="#344054" strokeWidth="5.26518" strokeLinecap="round" strokeLinejoin="round"/>
<path d="M7.856 55.7572L22.3616 46.0181C24.686 44.4587 28.0402 44.6353 30.1293 46.4301L31.1002 47.2833C33.3952 49.2547 37.1025 49.2547 39.3975 47.2833L51.6375 36.7793C53.9325 34.8079 57.6398 34.8079 59.9348 36.7793L64.7308 40.8985" stroke="#344054" strokeWidth="5.26518" strokeLinecap="round" strokeLinejoin="round"/>
</svg>
