<svg xmlns="http://www.w3.org/2000/svg" width="56" height="67" viewBox="0 0 56 67" fill="none">
  <path d="M39.91 45.0934C38.8161 45.0276 36.1861 45.1834 33.5521 45.6838C32.0285 44.1417 30.7091 42.1991 29.7303 40.5969C32.8667 31.5788 30.8804 29.0156 28.2067 29.0156C26.1071 29.0156 25.0588 31.2314 25.292 33.6795C25.4101 34.9119 26.4537 37.5013 27.7383 39.961C26.9502 42.0336 25.5438 45.5368 24.1479 48.072C22.5138 48.5685 21.1122 49.1203 20.1063 49.5859C15.096 51.9159 14.6933 55.0271 15.7359 56.3455C17.7155 58.8498 21.9331 56.6891 26.1652 49.1203C29.0625 48.2964 32.8745 47.1988 33.2181 47.1988C33.2577 47.1988 33.312 47.2114 33.375 47.2317C35.4871 49.0941 37.9817 51.2267 40.0348 51.5074C43.0057 51.9159 44.6969 49.7612 44.5796 48.4214C44.4634 47.0807 43.6803 45.3198 39.91 45.0934ZM21.1548 53.2575C19.9302 54.7135 17.9497 56.1101 17.2507 55.6456C16.5508 55.1801 16.4346 53.8402 18.0087 52.3244C19.5817 50.8104 22.2147 50.0244 22.6106 49.8772C23.0782 49.7031 23.1944 49.8773 23.1944 50.1105C23.1944 50.3438 22.3783 51.7997 21.1548 53.2575ZM26.5165 33.6785C26.3994 32.2206 26.6897 30.823 27.9143 30.6487C29.1369 30.4726 29.7207 31.8713 29.2549 34.1432C28.7883 36.4181 28.5541 37.9311 28.3217 38.1083C28.0886 38.2826 27.8571 37.6988 27.8571 37.6988C27.3897 36.7655 26.6327 35.1344 26.5165 33.6785ZM26.9831 47.372C27.6229 46.3216 29.255 42.0702 29.255 42.0702C29.6045 42.7119 32.342 45.9722 32.342 45.9722C32.342 45.9722 28.1467 46.9065 26.9831 47.372ZM39.6825 49.2344C37.9352 49.0041 34.9644 46.9035 34.9644 46.9035C34.5569 46.7293 38.2198 46.2317 39.6263 46.3217C41.4336 46.439 42.0744 47.1968 42.0744 47.9539C42.0744 48.7117 41.4336 49.4678 39.6825 49.2344Z" fill="#344054"/>
  <path d="M54.7062 14.0236L41.8966 1.21296L40.6835 0H38.9663H12.8425C6.67443 0 1.65636 5.01911 1.65636 11.1893V12.0451H0V25.4269H1.65636V55.504C1.65636 61.6732 6.67456 66.6923 12.8427 66.6923H44.7309C50.901 66.6923 55.9192 61.6732 55.9192 55.504V16.9538V15.2375L54.7062 14.0236ZM44.7308 62.5491H12.8425C8.95108 62.5491 5.7974 59.3952 5.7974 55.5039V25.4268H26.2883V12.045H5.7974V11.1892C5.7974 7.2968 8.95108 4.14195 12.8425 4.14195H37.9751V12.0739C37.9751 15.3158 40.6051 17.944 43.847 17.944H51.7779V55.5038C51.7779 59.3954 48.6232 62.5491 44.7308 62.5491ZM6.08787 21.6341V15.4398C6.08787 15.3305 6.17684 15.2412 6.28639 15.2412H8.25433C8.57867 15.2412 8.87774 15.2945 9.1449 15.3991C9.4092 15.5027 9.64145 15.6479 9.83514 15.8318C10.0307 16.0167 10.1807 16.2414 10.2823 16.4989C10.3839 16.7515 10.4363 17.0275 10.4363 17.3187C10.4363 17.616 10.3839 17.8937 10.2813 18.1435C10.1797 18.3934 10.0296 18.6149 9.83605 18.8019C9.6434 18.9877 9.41011 19.1339 9.14295 19.2355C8.87774 19.3371 8.57867 19.3884 8.25433 19.3884H7.4238V21.6342C7.4238 21.7436 7.33484 21.8326 7.22542 21.8326H6.28652C6.17684 21.8326 6.08787 21.7435 6.08787 21.6341ZM12.1573 21.6341V15.4398C12.1573 15.3305 12.2464 15.2412 12.3558 15.2412H14.5308C14.9441 15.2412 15.3082 15.31 15.6151 15.4455C15.9259 15.5838 16.2036 15.8037 16.4418 16.098C16.5648 16.2528 16.6625 16.4241 16.7331 16.608C16.8019 16.7871 16.8541 16.9808 16.888 17.1821C16.9209 17.3815 16.9402 17.5964 16.947 17.8278C16.9528 18.0484 16.9557 18.2856 16.9557 18.5373C16.9557 18.7879 16.9528 19.0252 16.947 19.2459C16.9402 19.4763 16.9209 19.6922 16.888 19.8925C16.8541 20.0939 16.8019 20.2865 16.7331 20.4655C16.6615 20.6514 16.5638 20.8228 16.4426 20.9747C16.2027 21.2719 15.9247 21.4917 15.615 21.6281C15.3109 21.7635 14.9461 21.8323 14.5307 21.8323H12.3556C12.2462 21.8326 12.1573 21.7435 12.1573 21.6341ZM22.5237 17.9732C22.6331 17.9732 22.7221 18.0622 22.7221 18.1717V19.0157C22.7221 19.1252 22.6331 19.2143 22.5237 19.2143H20.1473V21.6343C20.1473 21.7437 20.0582 21.8327 19.9488 21.8327H19.0097C18.9003 21.8327 18.8114 21.7437 18.8114 21.6343V15.44C18.8114 15.3307 18.9003 15.2415 19.0097 15.2415H22.6118C22.7211 15.2415 22.8103 15.3306 22.8103 15.44V16.2841C22.8103 16.3935 22.7212 16.4826 22.6118 16.4826H20.1473V17.9733L22.5237 17.9732Z" fill="#344054"/>
  <path d="M8.86566 17.9355C9.02353 17.7932 9.09986 17.5909 9.09986 17.3169C9.09986 17.0438 9.0234 16.8415 8.86566 16.6993C8.70114 16.5521 8.48426 16.4805 8.2016 16.4805H7.42331V18.154H8.2016C8.48413 18.1542 8.70114 18.0826 8.86566 17.9355Z" fill="#344054"/>
  <path d="M14.9519 20.5142C15.0991 20.4589 15.2258 20.37 15.3392 20.2422C15.4621 20.1048 15.5395 19.9073 15.5696 19.6546C15.6035 19.367 15.6199 18.9915 15.6199 18.5384C15.6199 18.0845 15.6035 17.7088 15.5696 17.4222C15.5395 17.1688 15.4621 16.9713 15.3401 16.8348C15.2269 16.7069 15.0961 16.6161 14.9529 16.5627C14.799 16.5037 14.6229 16.4746 14.4264 16.4746H13.4933V20.6012H14.4264C14.6218 20.6013 14.799 20.5723 14.9519 20.5142Z" fill="#344054"/>
</svg>