<svg width="71" height="71" viewBox="0 0 71 71" fill="none" xmlns="http://www.w3.org/2000/svg">
<path d="M64.7308 44.1328V26.479C64.7308 11.7674 58.8462 5.88281 44.1346 5.88281H26.4808C11.7692 5.88281 5.88461 11.7674 5.88461 26.479V44.1328C5.88461 58.8444 11.7692 64.729 26.4808 64.729H44.1346C58.8462 64.729 64.7308 58.8444 64.7308 44.1328Z" stroke="#344054" strokeWidth="5.26518" strokeLinecap="round" strokeLinejoin="round"/>
<path d="M7.41461 20.916H63.2008" stroke="#344054" strokeWidth="5.26518" strokeLinecap="round" strokeLinejoin="round"/>
<path d="M25.0685 6.21094V20.5106" stroke="#344054" strokeWidth="5.26518" strokeLinecap="round" strokeLinejoin="round"/>
<path d="M45.5469 6.21094V19.1865" stroke="#344054" strokeWidth="5.26518" strokeLinecap="round" strokeLinejoin="round"/>
<path d="M28.6875 42.5193V38.9885C28.6875 34.4574 31.8946 32.6037 35.8079 34.8693L38.8679 36.6347L41.9279 38.4C45.8412 40.6656 45.8412 44.3729 41.9279 46.6385L38.8679 48.4039L35.8079 50.1693C31.8946 52.4348 28.6875 50.5812 28.6875 46.05V42.5193V42.5193Z" stroke="#344054" strokeWidth="5.26518" strokeMiterlimit="10" strokeLinecap="round" strokeLinejoin="round"/>
</svg>
