<svg width="12" height="13" viewBox="0 0 12 13" fill="none" xmlns="http://www.w3.org/2000/svg">
<path d="M6.865 2.25482L7.745 4.01482C7.865 4.25982 8.185 4.49482 8.455 4.53982L10.05 4.80482C11.07 4.97482 11.31 5.71482 10.575 6.44482L9.335 7.68482C9.125 7.89482 9.01 8.29982 9.075 8.58982L9.43 10.1248C9.71 11.3398 9.065 11.8098 7.99 11.1748L6.495 10.2898C6.225 10.1298 5.78 10.1298 5.505 10.2898L4.01 11.1748C2.94 11.8098 2.29 11.3348 2.57 10.1248L2.925 8.58982C2.99 8.29982 2.875 7.89482 2.665 7.68482L1.425 6.44482C0.695 5.71482 0.93 4.97482 1.95 4.80482L3.545 4.53982C3.81 4.49482 4.13 4.25982 4.25 4.01482L5.13 2.25482C5.61 1.29982 6.39 1.29982 6.865 2.25482Z" fill="#FFB703"/>
</svg>
