<svg width="69" height="46" viewBox="0 0 69 46" fill="none" xmlns="http://www.w3.org/2000/svg">
<path d="M64.7283 45.5625C62.8047 45.5625 61.2436 44.1045 61.2436 42.308V3.25446C61.2436 1.458 62.8047 0 64.7283 0C66.6518 0 68.213 1.458 68.213 3.25446V42.308C68.213 44.1045 66.6518 45.5625 64.7283 45.5625ZM47.3049 41.2232C47.3049 43.6185 45.2233 45.5625 42.6586 45.5625H21.7505C19.1858 45.5625 17.1043 43.6185 17.1043 41.2232V32.6336L7.83268 30.707V15.0226L58.9971 4.49333V41.3425L47.3049 38.9147V41.2232ZM44.9817 38.4309L19.4274 33.1174V41.2232C19.4274 42.4209 20.4681 43.3929 21.7505 43.3929H42.6586C43.9433 43.3929 44.9817 42.4209 44.9817 41.2232V38.4309ZM3.16553 32.5446C1.88317 32.5446 0.842407 31.5726 0.842407 30.375V15.1875C0.842407 13.9877 1.88317 13.0179 3.16553 13.0179C4.44789 13.0179 5.48865 13.9877 5.48865 15.1875V30.375C5.48865 31.5726 4.44789 32.5446 3.16553 32.5446Z" fill="#FB8500"/>
</svg>
