<svg width="12" height="12" viewBox="0 0 12 12" fill="none" xmlns="http://www.w3.org/2000/svg">
<path d="M9.08886 8.71117C9.2718 8.52822 9.2718 8.2316 9.08885 8.04866L6.77037 5.73017L9.08949 3.41106C9.27244 3.22811 9.27244 2.93149 9.08949 2.74854C8.90654 2.56559 8.60993 2.56559 8.42698 2.74854L6.10786 5.06766L3.78874 2.74854C3.60579 2.56559 3.30917 2.56559 3.12622 2.74854C2.94328 2.93149 2.94328 3.22811 3.12622 3.41105L5.44534 5.73017L3.12686 8.04866C2.94391 8.2316 2.94391 8.52822 3.12686 8.71117C3.30981 8.89412 3.60643 8.89412 3.78938 8.71117L6.10786 6.39269L8.42634 8.71117C8.60929 8.89412 8.90591 8.89412 9.08886 8.71117Z" fill="#191D23"/>
</svg>
