<svg width="77" height="78" viewBox="0 0 77 78" fill="none" xmlns="http://www.w3.org/2000/svg">
<path opacity="0.4" d="M34.4892 8.36061C36.703 6.46769 40.3284 6.46769 42.5742 8.36061L47.6434 12.7239C48.6059 13.5581 50.4026 14.2319 51.6859 14.2319H57.1401C60.5409 14.2319 63.3322 17.0231 63.3322 20.4239V25.8781C63.3322 27.1294 64.0059 28.9581 64.8401 29.9206L69.2034 34.9898C71.0963 37.2035 71.0963 40.8289 69.2034 43.0748L64.8401 48.1439C64.0059 49.1064 63.3322 50.9031 63.3322 52.1864V57.6406C63.3322 61.0414 60.5409 63.8327 57.1401 63.8327H51.6859C50.4347 63.8327 48.6059 64.5064 47.6434 65.3406L42.5742 69.7039C40.3605 71.5968 36.7351 71.5968 34.4892 69.7039L29.4201 65.3406C28.4576 64.5064 26.6609 63.8327 25.3776 63.8327H19.8272C16.4263 63.8327 13.6351 61.0414 13.6351 57.6406V52.1544C13.6351 50.9031 12.9613 49.1064 12.1592 48.1439L7.828 43.0427C5.96716 40.8289 5.96716 37.2356 7.828 35.0219L12.1592 29.9206C12.9613 28.9581 13.6351 27.1614 13.6351 25.9102V20.3919C13.6351 16.991 16.4263 14.1998 19.8272 14.1998H25.3776C26.6288 14.1998 28.4576 13.526 29.4201 12.6919L34.4892 8.36061Z" fill="#FB8500"/>
<path d="M34.6182 49.1704C33.9765 49.1704 33.367 48.9137 32.9178 48.4645L25.1536 40.7004C24.2232 39.7699 24.2232 38.2299 25.1536 37.2995C26.084 36.3691 27.624 36.3691 28.5545 37.2995L34.6182 43.3633L48.414 29.5674C49.3445 28.637 50.8845 28.637 51.8149 29.5674C52.7453 30.4979 52.7453 32.0379 51.8149 32.9683L36.3186 48.4645C35.8695 48.9137 35.2599 49.1704 34.6182 49.1704Z" fill="#FB8500"/>
</svg>
