<svg xmlns="http://www.w3.org/2000/svg" width="20" height="20" viewBox="0 0 20 20" fill="none">
  <path d="M10 10.834C10.4603 10.834 10.8334 10.4609 10.8334 10.0007C10.8334 9.54041 10.4603 9.16732 10 9.16732C9.53978 9.16732 9.16669 9.54041 9.16669 10.0007C9.16669 10.4609 9.53978 10.834 10 10.834Z" stroke="#98A2B3" strokeWidth="1.66667" strokeLinecap="round" strokeLinejoin="round"/>
  <path d="M10 5.00065C10.4603 5.00065 10.8334 4.62755 10.8334 4.16732C10.8334 3.70708 10.4603 3.33398 10 3.33398C9.53978 3.33398 9.16669 3.70708 9.16669 4.16732C9.16669 4.62755 9.53978 5.00065 10 5.00065Z" stroke="#98A2B3" strokeWidth="1.66667" strokeLinecap="round" strokeLinejoin="round"/>
  <path d="M10 16.6673C10.4603 16.6673 10.8334 16.2942 10.8334 15.834C10.8334 15.3737 10.4603 15.0007 10 15.0007C9.53978 15.0007 9.16669 15.3737 9.16669 15.834C9.16669 16.2942 9.53978 16.6673 10 16.6673Z" stroke="#98A2B3" strokeWidth="1.66667" strokeLinecap="round" strokeLinejoin="round"/>
</svg>