<svg width="18" height="18" viewBox="0 0 18 18" fill="none" xmlns="http://www.w3.org/2000/svg">
<path d="M0.75 16.5H17.25C17.4489 16.5 17.6397 16.579 17.7803 16.7197C17.921 16.8603 18 17.0511 18 17.25C18 17.4489 17.921 17.6397 17.7803 17.7803C17.6397 17.921 17.4489 18 17.25 18H0.75C0.551088 18 0.360322 17.921 0.21967 17.7803C0.0790178 17.6397 0 17.4489 0 17.25C0 17.0511 0.0790178 16.8603 0.21967 16.7197C0.360322 16.579 0.551088 16.5 0.75 16.5ZM9.75 10.554L15.288 5.0145L16.3485 6.075L8.925 13.5L1.5 6.075L2.5605 5.0145L8.25 10.704V0H9.75V10.554Z" fill="#FB8500"/>
</svg>
