<svg width="15" height="16" viewBox="0 0 15 16" fill="none" xmlns="http://www.w3.org/2000/svg">
<path fillRule="evenodd" clipRule="evenodd" d="M6.06694 2.55806C6.311 2.80214 6.311 3.19786 6.06694 3.44194L4.00888 5.5H7.5C10.2614 5.5 12.5 7.73858 12.5 10.5V13C12.5 13.3452 12.2202 13.625 11.875 13.625C11.5298 13.625 11.25 13.3452 11.25 13V10.5C11.25 8.42896 9.57106 6.75 7.5 6.75H4.00888L6.06694 8.80808C6.311 9.05214 6.311 9.44789 6.06694 9.69196C5.82286 9.93602 5.42714 9.93602 5.18306 9.69196L2.05806 6.56694C1.81398 6.32286 1.81398 5.92714 2.05806 5.68306L5.18306 2.55806C5.42714 2.31398 5.82286 2.31398 6.06694 2.55806Z" fill="var(--secondary-color)"/>
</svg>
