<svg xmlns="http://www.w3.org/2000/svg" width="17" height="18" viewBox="0 0 17 18" fill="none">
  <path fillRule="evenodd" clipRule="evenodd" d="M12.8787 0.75C13.2765 0.75 13.658 0.908033 13.9394 1.18934L16.0606 3.31066C16.342 3.59197 16.5 3.97349 16.5 4.37132V15C16.5 16.2427 15.4927 17.25 14.25 17.25H2.25C1.00736 17.25 0 16.2427 0 15V3C0 1.75736 1.00736 0.75 2.25 0.75H12.8787ZM2.25 2.25C1.83579 2.25 1.5 2.58579 1.5 3V15C1.5 15.4142 1.83579 15.75 2.25 15.75H3V11.25C3 10.0073 4.00736 9 5.25 9H11.25C12.4927 9 13.5 10.0073 13.5 11.25V15.75H14.25C14.6642 15.75 15 15.4142 15 15V5.12132C15 4.72349 14.842 4.34197 14.5606 4.06066L13.1894 2.68934C12.908 2.40803 12.5265 2.25 12.1287 2.25H12V3.75C12 4.99264 10.9927 6 9.75 6H6.75C5.50736 6 4.5 4.99264 4.5 3.75V2.25H2.25ZM12 15.75V11.25C12 10.8358 11.6642 10.5 11.25 10.5H5.25C4.83579 10.5 4.5 10.8358 4.5 11.25V15.75H12ZM6 2.25H10.5V3.75C10.5 4.16421 10.1642 4.5 9.75 4.5H6.75C6.33579 4.5 6 4.16421 6 3.75V2.25Z" fill="#023047"/>
</svg>