<svg width="18" height="18" viewBox="0 0 18 18" fill="none" xmlns="http://www.w3.org/2000/svg">
<path d="M9 11.625C10.6575 11.625 12 10.2825 12 8.625V4.5C12 2.8425 10.6575 1.5 9 1.5C7.3425 1.5 6 2.8425 6 4.5V8.625C6 10.2825 7.3425 11.625 9 11.625Z" stroke="#023047" strokeWidth="1.125" strokeLinecap="round" strokeLinejoin="round"/>
<path d="M3.26245 7.2373V8.51231C3.26245 11.6773 5.83495 14.2498 8.99995 14.2498C12.165 14.2498 14.7375 11.6773 14.7375 8.51231V7.2373" stroke="#023047" strokeWidth="1.125" strokeLinecap="round" strokeLinejoin="round"/>
<path d="M7.95752 4.82234C8.63252 4.57484 9.36752 4.57484 10.0425 4.82234" stroke="#023047" strokeWidth="1.125" strokeLinecap="round" strokeLinejoin="round"/>
<path d="M8.40002 6.41225C8.79752 6.30725 9.21002 6.30725 9.60752 6.41225" stroke="#023047" strokeWidth="1.125" strokeLinecap="round" strokeLinejoin="round"/>
<path d="M9 14.25V16.5" stroke="#023047" strokeWidth="1.125" strokeLinecap="round" strokeLinejoin="round"/>
</svg>
